<svg width="80" height="80" xmlns="http://www.w3.org/2000/svg" version="1.1">
    <g>
        <title>Layer 1</title>
        <ellipse id="svg_1" fill="#FFDD67" cx="39.80392" cy="40.06184" ry="39" rx="39"/>
        <ellipse id="svg_2" fill="#FF717F" cx="66.90392" cy="46.76184" ry="10.4" rx="10.4"/>
        <ellipse id="svg_3" fill="#FF717F" cx="12.70392" cy="46.76184" ry="10.4" rx="10.4"/>
        <path id="svg_4" d="m69.20392,25.26184c-3.5,-4.2 -8.7,-6.7 -14.2,-6.6c-0.8,0 -1,-2.9 0,-2.9c6.3,0 12.4,2.8 16.4,7.7c0.6,0.7 -1.7,2.4 -2.2,1.8zm-44.6,-6.8c-5.5,0 -10.7,2.4 -14.2,6.6c-0.52,0.6 -2.81,-1.1 -2.23,-1.8c4.03,-4.9 10.1,-7.7 16.4,-7.7c1,0 0.8,2.9 0,2.9l0.03,0z" fill="#917524"/>
        <ellipse id="svg_5" fill="#664E27" cx="39.80392" cy="62.76184" ry="5.85" rx="5.85"/>
        <path id="svg_6" d="m36.60392,36.36184c0,6.4 -5.3,11.7 -11.8,11.7c-6.4,0 -11.6,-5.3 -11.6,-11.7c0,-6.5 5.2,-11.7 11.6,-11.7c6.5,0 11.8,5.2 11.8,11.7z" fill="#fff"/>
        <ellipse id="svg_7" fill="#664E27" cx="24.80392" cy="36.36184" ry="5.85" rx="5.85"/>
        <path id="svg_8" d="m66.40392,36.36184c0,6.4 -5.2,11.7 -11.6,11.7c-6.51,0 -11.8,-5.3 -11.8,-11.7c0.05,-6.48 5.29,-11.7 11.8,-11.7c6.4,-0.022 11.6,5.22 11.6,11.7z" fill="#fff"/>
        <ellipse id="svg_9" fill="#664E27" cx="54.80392" cy="36.36184" ry="5.85" rx="5.85"/>
    </g>
</svg>